<svg id="Ebene_1" data-name="Ebene 1" xmlns="http://www.w3.org/2000/svg" xmlns:xlink="http://www.w3.org/1999/xlink" viewBox="0 0 461.38 132.21"><defs><style>.cls-1,.cls-3{fill:none;}.cls-2{clip-path:url(#clip-path);}.cls-3{stroke:#b51917;stroke-width:6.62px;}.cls-4{fill:#1d1d1b;}</style><clipPath id="clip-path" transform="translate(-55.54 -60.23)"><rect class="cls-1" x="55.54" y="60.23" width="461.38" height="132.21"/></clipPath></defs><title>schochi_stempel</title><g class="cls-2"><path class="cls-3" d="M402,100.15c2.45-3.29,5.85-6.72,8.45-9.8s5.95-4.83,9.22-6.75c7.06-4.14,12.69-9.8,19.15-14.54,2.43,5-6.91,5.51-9.57,6-14.31,2.7-28.64,14.39-36.62,26.12,4.83,2.37,5.43,6.49,11.43,3.49,7.06-3.52,8.66-14.3,14.81-19.26a21.11,21.11,0,0,0,4.51-2.12c2.1-1.69,3.49-5,5.24-7.14,3.07-3.69,3.28-4.17,7.16-2.75,3,1.11,5.47,3.39,8.5,4.89,3.33,1.65,7.45,5.26,10.7,6.4,4.15,1.45,7.48-.6,11.46,1.64,2.67,1.51,4.17,4,6.37,5.75.84.66,5.08,3,6.19,2.16,3.25-2.46-2.22-5-3.38-5.8-6-4.19-13-6.82-19.81-10.19-4.75-2.34-9-5.19-13.59-7.75-5.41-3-10.93-7.57-17.39-6.91,3.74.91,6.69,5.1,9.59,7.48,7.42,6.06,14.38,11.16,23,15.39,4.65,2.29,15.27,11.67,20.13,9.41,2.76-6.32-12-10-15.85-11.09-3.12-.9-23.59-7.51-22.63-11.36" transform="translate(-55.54 -60.23)"/><path class="cls-4" d="M492.77,142.12l-.05,1.52-1.86,10.22-.5,0,0-.5,1.89-11.24ZM507,137.6l-.32,9.1-.58,2.57-.52,0,.19-5.57.73-6.1Zm2.68-34q0,.8-3.12,3.27-2-.62-2-1.38a4.14,4.14,0,0,0-1.52.6l-2-.88a4.2,4.2,0,0,0-2,.66l-1-.45a.5.5,0,0,0-.51.55q-2.57,1.69-2.6,2.69a11.23,11.23,0,0,0-6.23,6.49q-4.74,36-7.64,46.94a5.39,5.39,0,0,1,1.37,3.95l1-.07,0-1,.5,0-.05,1.52,1-.07q2.34-3.69,3.13-3.74l1-.07,1,.43.3-8.58,1.93,1.88-.05,1.52.44,2c.66,0,1-.57,1-1.58q2,1.22,1.93,2.39l2.51-.67,0,1,1.51-.11q2.53-4.2,3.67-4.28l1.5-.11,0,1,1-.07,0-1,.5,0q-.19,5.54,3.83,5.27,4.65-4.35,4.78-7.9l.63-18.2q.35-10.23,1.37-25.32-.57-7.52-2.25-7.41Zm-89.56,1.72c0-.33-.17-.49-.52-.46-.56,0-.89.4-1,1.08a4.35,4.35,0,0,0-3,4.23L412,108.43q-3.35.75-5.51,4.92Q405,134,402.51,156q.5,1.48,1,1.44V159a3.48,3.48,0,0,1,.5,1.48l1.5-1.12v1l1-.07q2.49-2.92,2.5-3.72,2.52.43,2.52,4.36l1.5-1.1v1l2-.14.52-2.54,1.5-.11-.52,5.07a6.87,6.87,0,0,1,1.51,3.94l1.5-.11c.34,0,.52.13.52.46l1.5-.11q1.05-3,3-3.73l1-.07v1l.5,0q0-.37.5-3.06,0-2.72-.5-9.54,3.08-.22,4-10.37,0-1.41,24.58-5.24l.5,0q-.5,11.9-.5,17.67v7.07q0,4.91,3,5.34,5-4.57,5-6.4l2-44q0-3.31-.52-8.54,0-3.69-3.5-4.29a3.89,3.89,0,0,1-1.51.6q-2.17.15-4.52,4.36a134.92,134.92,0,0,1,1,19.1l-25.59,5.31V120.78q0-12.6-3-12.39l-2.52.67v-3q-.21-1-2.52-1.83ZM364,128.84q-8,12-8,20.73v2l-.5,0q-3-2.94-3-5.32v-.52q0-7.87,11.53-16.93m10-17.37a5.64,5.64,0,0,1-3-.78q-8.32.58-18.56,11.89-10,8.1-10,32v.5q2.92,10.88,6,10.67,2.65,4.37,16.56,3.4,8.71,3.41,12,3.18,2-1.38,2-2.15l-.52-1a22.38,22.38,0,0,0,3-1.2q7-8.08,8-8.15a5.15,5.15,0,0,0-1-2.43l.49-1.05q0-1.51-2-1.87-10.8,3.78-12.54,3.9l-.52,0q-10.54-4.32-10.54-12.38,0-9.92,11.55-22,5-3.48,5-4.39,2-1.44,2-2.15l.49,0v1a4.1,4.1,0,0,1,2-.66v-1l-1,.59-.52,0q.8-1.57,1.5-1.62a5.61,5.61,0,0,0-1-3,3.92,3.92,0,0,1,1-2.1q-.82-2-3.5-1.76l-1.51.11-1,.57v-.5q-.88.06-4.52,2.33m-99.93,23.25a29,29,0,0,0-1,7.14v7.07l.5,2.47-1,.07a45.08,45.08,0,0,1-2.5-7.39.47.47,0,0,0,.5-.53l-.5-1q2.19-7.72,4-7.84m5,1.68q1.29-8.17,6.52-8.54v.52q-5.53,10.46-5.53,11.47l-1,.07ZM304.2,121q5.36-.37,13.55,5.1,6,6.19,6,11.68a33.83,33.83,0,0,1-2.52,6.72q-10.84,15.39-24.09,16.32l-.5,0q0-.86,1-1.08-4-7.28-4-12.84a67.22,67.22,0,0,1,2-11.23q8-13.4,8-14.67Zm-4-6.29-1.51.11q-4.17.29-13.55,3.48-23.59,11.83-23.59,26.35,0,15.47,17.06,24a7.12,7.12,0,0,0,6.54,3.09l1.51-1.12.49,0a16,16,0,0,1,4,.21q8.9-.62,20.07-7,20.58-15.1,20.58-28.15a31,31,0,0,0-2.52-11.93q-9.91-12.94-22.07-12.09a12.74,12.74,0,0,0-7,3m-94.79-1c0-.33-.17-.49-.51-.46q-.82.06-1,1.08a4.34,4.34,0,0,0-3,4.23l-3.46-1.77q-3.29.75-5.4,4.91-1.48,20.66-3.94,42.64.49,1.48,1,1.44v1.53a3.53,3.53,0,0,1,.48,1.48l1.48-1.12v1l1-.07q2.44-2.91,2.44-3.71,2.46.43,2.47,4.37l1.48-1.1v1l2-.14.5-2.54,1.48-.1-.51,5.07a7,7,0,0,1,1.48,3.94l1.48-.1c.34,0,.51.13.51.46l1.48-.1q1-3,3-3.73l1-.07v1l.48,0q0-.37.48-3.06,0-2.72-.48-9.54,3-.21,3.94-10.37,0-1.41,24.09-5.21l.48,0q-.48,11.9-.48,17.67v7.07q0,4.91,3,5.35,4.91-4.56,4.91-6.4l2-44q0-3.31-.51-8.54,0-3.69-3.44-4.3a3.77,3.77,0,0,1-1.48.6q-2.13.15-4.43,4.35a137.62,137.62,0,0,1,1,19.1l-25.08,5.28V129.17q0-12.6-2.95-12.39l-2.47.67v-3q-.21-1-2.47-1.84ZM155,153.32q-7.22,10.83-7.22,18.65v1.81l-.44,0q-2.71-2.65-2.71-4.79v-.47q0-7.08,10.38-15.23m9-15.63a5.08,5.08,0,0,1-2.71-.7q-7.49.52-16.71,10.7-9,7.29-9,28.78v.45q2.63,9.79,5.42,9.6,2.38,3.94,14.91,3.06,7.84,3.07,10.84,2.86,1.82-1.24,1.82-1.94l-.46-.88a20.12,20.12,0,0,0,2.71-1.08q6.33-7.27,7.24-7.33a4.62,4.62,0,0,0-.91-2.19l.44-.95q0-1.36-1.8-1.68-9.72,3.4-11.29,3.51l-.46,0q-9.48-3.89-9.49-11.14,0-8.93,10.4-19.79,4.51-3.13,4.51-4,1.82-1.3,1.82-1.94l.44,0V144a3.71,3.71,0,0,1,1.8-.59v-.91l-.89.53-.46,0q.71-1.41,1.35-1.46a5.05,5.05,0,0,0-.89-2.66,3.52,3.52,0,0,1,.89-1.89q-.74-1.76-3.16-1.59l-1.35.09-.91.51v-.45q-.8.06-4.07,2.09m-47.81,28.75q-7,8.4-13.76,11.05l-1-.45L99.4,178.2q0-.5-4.48-.18,9.64-9.43,9.88-12.79l.21-3-.43-1a.51.51,0,0,0,.53-.53q8.54-.6,11.09,5.77M85.13,131.78l3-.21q-12.64,9.49-12.68,10l-.49,0q8.83-9.54,10.16-9.81m-1.76-10.47q-19.54,15.11-20.06,22.6l-.5,0a3.24,3.24,0,0,0-.41-1.48q.84-5.31,1.89-5.69.33-4.82,8.09-8.65l.07-1q.09-1.21-2.9-1.31l-1,.07a6.65,6.65,0,0,0-3.08,1.21q-9,7.57-9.73,17.84l-.21,3Q58.15,164.45,79,163q3.4-.24,16.63-2.18L97,163.25l-.69,2.58q-6.47,10-18.73,10.88l-1,.07-2.48-.32q0,.5-1.54.61l-1.5.11-.11,1.52a4.57,4.57,0,0,0-3.12,1.73,3.34,3.34,0,0,0,.39,1.49c0,.35-.54.56-1.54.63q-.14,2,2.38,1.84l0,.5-1.12,1.59q-.07,1,1.44.92,3-.21,2.87,1.81,1.58,3.44,6.79,3.07,30.69-2.15,44.47-21.78l1,.43,0-.5-.45-1,.52,0q.44-6.34-1.78-10.47-3.07-1.68-20.2-4.12-3.94-4.91-24.86-8.85.14-2,9.53-7.73l1.44.92.49,0q4.21-4.25,8.36-5.12,1.44-.1,4.77,3.19a7.62,7.62,0,0,0-1.26-3.44l1-.59.81,2.47.52,0,0-.5-.34-2.51q11.68,2.56,13.58,6.12,1.31-.09,2.25-3.7l0-.5q.61-8.82-14.35-9.09l-3.5.25q-4.82-2.69-4.51-7.25a.53.53,0,0,0,.55-.54q.14-2-1.37-1.94l-3,.21q-2.37.17-9.35,5.19" transform="translate(-55.54 -60.23)"/></g></svg>